<svg xmlns="http://www.w3.org/2000/svg" viewBox="0 0 58.63 65.83"><defs><style>.cls-1{fill:#ace2ec;}.cls-2{fill:#f9c172;}.cls-3{fill:#204451;}.cls-4{fill:#defdff;}.cls-5{fill:#28a5b2;}.cls-6{fill:#5ecce5;}.cls-7{fill:#82d3e2;}.cls-8{fill:#ffb45a;}.cls-9{fill:#113240;}.cls-10{fill:#bde2e5;}.cls-11{fill:#1e7c85;}.cls-12{fill:#3db5c9;}.cls-13{fill:#facb88;}.cls-14{fill:#15baac;}.cls-15{fill:#0baf9b;}.cls-16{fill:#0a9b86;}.cls-17{fill:#4be0ca;}</style></defs><g id="Layer_2" data-name="Layer 2"><g id="Layer_1-2" data-name="Layer 1"><rect class="cls-1" x="18.29" y="42.97" width="11.02" height="22.86"/><polygon class="cls-2" points="29.31 48.36 21.64 45.56 21.64 30.13 29.31 30.13 29.31 45.08 29.31 48.36"/><polygon class="cls-3" points="28.26 53.55 24.57 61.19 27.57 65.83 29.31 65.83 29.31 45.08 25.48 50.81 28.26 53.55"/><polygon class="cls-4" points="20.14 40.85 29.31 45.08 25.48 51.98 18.29 42.97 20.14 40.85"/><path class="cls-5" d="M0,65.83H29.31l-13.42-19H13.14C0,46.79,0,65.83,0,65.83Z"/><polygon class="cls-6" points="12.97 46.41 18.29 42.97 29.31 65.83 16.93 55.66 19.59 51.98 14.68 52.59 12.97 46.41"/><rect class="cls-7" x="29.31" y="42.97" width="11.02" height="22.86"/><polygon class="cls-8" points="29.31 48.36 36.99 45.56 36.99 30.13 29.31 30.13 29.31 45.08 29.31 48.36"/><polygon class="cls-9" points="30.37 53.55 34.05 61.19 31.05 65.83 29.31 65.83 29.31 45.08 33.15 50.81 30.37 53.55"/><polygon class="cls-10" points="38.49 40.85 29.31 45.08 33.15 51.98 40.33 42.97 38.49 40.85"/><path class="cls-11" d="M58.63,65.83H29.31l13.43-19h2.75C57.57,46.79,58.63,65.83,58.63,65.83Z"/><polygon class="cls-12" points="45.66 46.41 40.33 42.97 29.31 65.83 41.7 55.66 39.04 51.98 43.95 52.59 45.66 46.41"/><path class="cls-13" d="M18,19.25l-.28-.12c-1.51-.65-1.89-.74-1.78,2.68,0,0,0,6.14,2.27,6.45A10.27,10.27,0,0,0,19.1,31c2.25,4.08,6.18,8.77,10.21,8.77V10.24C16.82,8.7,19.17,14.09,18,19.25Z"/><path class="cls-2" d="M40.66,19.25l.28-.12c1.52-.65,1.89-.74,1.78,2.68,0,0,0,6.14-2.26,6.45A10.28,10.28,0,0,1,39.52,31c-2.24,4.08-6.18,8.77-10.21,8.77V10.24C41.8,8.7,39.46,14.09,40.66,19.25Z"/><path class="cls-9" d="M26.82,4a11.11,11.11,0,0,0-4,.68C14.38,8,17.71,19.41,18,22.49c.07.79.45-4.76,1.12-7.75.41-1.86,2.88-2.26,4.47-1.19a9.67,9.67,0,0,0,5.76,1.19V4Z"/><path class="cls-9" d="M31.8,4a11.17,11.17,0,0,1,4,.68C44.24,8,40.92,19.41,40.66,22.49c-.06.79-.45-4.76-1.11-7.75-.42-1.86-2.89-2.26-4.47-1.19a9.7,9.7,0,0,1-5.77,1.19V4Z"/><path class="cls-14" d="M37.4,34.67H30.54v-1H37.4a3.65,3.65,0,0,0,3.44-2.44l1.22-3.45.94.34-1.22,3.45A4.65,4.65,0,0,1,37.4,34.67Z"/><path class="cls-15" d="M31.55,35.83h1.61a1.66,1.66,0,0,0,1.66-1.66H29.88A1.66,1.66,0,0,0,31.55,35.83Z"/><path class="cls-14" d="M33.16,32.5H31.55a1.67,1.67,0,0,0-1.67,1.67h4.94A1.66,1.66,0,0,0,33.16,32.5Z"/><path class="cls-14" d="M28.16,0A13.24,13.24,0,0,0,15,13.26V15.5h1.92V13.26A11.31,11.31,0,0,1,28.16,1.93h1.15V0Z"/><path class="cls-16" d="M30.46,0H29.31V1.93h1.15A11.32,11.32,0,0,1,41.74,13.26V15.5h1.91V13.26A13.24,13.24,0,0,0,30.46,0Z"/><path class="cls-17" d="M46.79,15.73a4,4,0,0,0-2.63-1.35,3.32,3.32,0,0,0-1.63,0V28.86a3.32,3.32,0,0,0,1.63,0,4,4,0,0,0,2.63-1.35C47.78,26.27,47.78,17,46.79,15.73Z"/><path class="cls-14" d="M40.55,17.22V26a2.78,2.78,0,0,0,2,2.84V14.38A2.78,2.78,0,0,0,40.55,17.22Z"/><path class="cls-17" d="M14.47,14.38a4,4,0,0,0-2.63,1.35c-1,1.24-1,10.54,0,11.78a4,4,0,0,0,2.63,1.35,3.33,3.33,0,0,0,1.63,0V14.38A3.33,3.33,0,0,0,14.47,14.38Z"/><path class="cls-16" d="M16.1,14.38V28.86a2.79,2.79,0,0,0,2-2.84v-8.8A2.79,2.79,0,0,0,16.1,14.38Z"/></g></g></svg>